<svg width="283" height="46" viewBox="0 0 283 46" fill="none" xmlns="http://www.w3.org/2000/svg">
<rect width="283" height="46" rx="23" fill="#183249"/>
<path d="M244 29.3334L250.333 23.0001M250.333 23.0001L244 16.6667M250.333 23.0001H237.667M259.833 23.0001C259.833 31.7446 252.744 38.8334 244 38.8334C235.255 38.8334 228.167 31.7446 228.167 23.0001C228.167 14.2556 235.255 7.16675 244 7.16675C252.744 7.16675 259.833 14.2556 259.833 23.0001Z" stroke="#EFF8FA" stroke-width="4" stroke-linecap="round" stroke-linejoin="round"/>
<path d="M69.6763 26.808H63.0043L61.9003 30H58.3723L64.3963 13.224H68.3083L74.3323 30H70.7803L69.6763 26.808ZM68.7643 24.12L66.3403 17.112L63.9163 24.12H68.7643ZM79.944 18.624C80.376 18.016 80.968 17.512 81.72 17.112C82.488 16.696 83.36 16.488 84.336 16.488C85.472 16.488 86.496 16.768 87.408 17.328C88.336 17.888 89.064 18.688 89.592 19.728C90.136 20.752 90.408 21.944 90.408 23.304C90.408 24.664 90.136 25.872 89.592 26.928C89.064 27.968 88.336 28.776 87.408 29.352C86.496 29.928 85.472 30.216 84.336 30.216C83.36 30.216 82.496 30.016 81.744 29.616C81.008 29.216 80.408 28.712 79.944 28.104V36.336H76.584V16.704H79.944V18.624ZM86.976 23.304C86.976 22.504 86.808 21.816 86.472 21.24C86.152 20.648 85.72 20.2 85.176 19.896C84.648 19.592 84.072 19.44 83.448 19.44C82.84 19.44 82.264 19.6 81.72 19.92C81.192 20.224 80.76 20.672 80.424 21.264C80.104 21.856 79.944 22.552 79.944 23.352C79.944 24.152 80.104 24.848 80.424 25.44C80.76 26.032 81.192 26.488 81.72 26.808C82.264 27.112 82.84 27.264 83.448 27.264C84.072 27.264 84.648 27.104 85.176 26.784C85.72 26.464 86.152 26.008 86.472 25.416C86.808 24.824 86.976 24.12 86.976 23.304ZM96.2096 18.624C96.6416 18.016 97.2336 17.512 97.9856 17.112C98.7536 16.696 99.6256 16.488 100.602 16.488C101.738 16.488 102.762 16.768 103.674 17.328C104.602 17.888 105.33 18.688 105.858 19.728C106.402 20.752 106.674 21.944 106.674 23.304C106.674 24.664 106.402 25.872 105.858 26.928C105.33 27.968 104.602 28.776 103.674 29.352C102.762 29.928 101.738 30.216 100.602 30.216C99.6256 30.216 98.7616 30.016 98.0096 29.616C97.2736 29.216 96.6736 28.712 96.2096 28.104V36.336H92.8496V16.704H96.2096V18.624ZM103.242 23.304C103.242 22.504 103.074 21.816 102.738 21.24C102.418 20.648 101.986 20.2 101.442 19.896C100.914 19.592 100.338 19.44 99.7136 19.44C99.1056 19.44 98.5296 19.6 97.9856 19.92C97.4576 20.224 97.0256 20.672 96.6896 21.264C96.3696 21.856 96.2096 22.552 96.2096 23.352C96.2096 24.152 96.3696 24.848 96.6896 25.44C97.0256 26.032 97.4576 26.488 97.9856 26.808C98.5296 27.112 99.1056 27.264 99.7136 27.264C100.338 27.264 100.914 27.104 101.442 26.784C101.986 26.464 102.418 26.008 102.738 25.416C103.074 24.824 103.242 24.12 103.242 23.304ZM112.475 12.24V30H109.115V12.24H112.475ZM128.515 16.704L120.283 36.288H116.707L119.587 29.664L114.259 16.704H118.027L121.459 25.992L124.939 16.704H128.515ZM150.373 30H147.013L139.405 18.504V30H136.045V13.224H139.405L147.013 24.744V13.224H150.373V30ZM159.597 30.216C158.317 30.216 157.165 29.936 156.141 29.376C155.117 28.8 154.309 27.992 153.717 26.952C153.141 25.912 152.853 24.712 152.853 23.352C152.853 21.992 153.149 20.792 153.741 19.752C154.349 18.712 155.173 17.912 156.213 17.352C157.253 16.776 158.413 16.488 159.693 16.488C160.973 16.488 162.133 16.776 163.173 17.352C164.213 17.912 165.029 18.712 165.621 19.752C166.229 20.792 166.533 21.992 166.533 23.352C166.533 24.712 166.221 25.912 165.597 26.952C164.989 27.992 164.157 28.8 163.101 29.376C162.061 29.936 160.893 30.216 159.597 30.216ZM159.597 27.288C160.205 27.288 160.773 27.144 161.301 26.856C161.845 26.552 162.277 26.104 162.597 25.512C162.917 24.92 163.077 24.2 163.077 23.352C163.077 22.088 162.741 21.12 162.069 20.448C161.413 19.76 160.605 19.416 159.645 19.416C158.685 19.416 157.877 19.76 157.221 20.448C156.581 21.12 156.261 22.088 156.261 23.352C156.261 24.616 156.573 25.592 157.197 26.28C157.837 26.952 158.637 27.288 159.597 27.288ZM187.43 16.704L183.542 30H179.918L177.494 20.712L175.07 30H171.422L167.51 16.704H170.918L173.27 26.832L175.814 16.704H179.366L181.862 26.808L184.214 16.704H187.43ZM193.592 12.96L193.208 24.552H190.376L189.968 12.96H193.592ZM191.864 30.168C191.256 30.168 190.752 29.984 190.352 29.616C189.968 29.232 189.776 28.76 189.776 28.2C189.776 27.64 189.968 27.176 190.352 26.808C190.752 26.424 191.256 26.232 191.864 26.232C192.456 26.232 192.944 26.424 193.328 26.808C193.712 27.176 193.904 27.64 193.904 28.2C193.904 28.76 193.712 29.232 193.328 29.616C192.944 29.984 192.456 30.168 191.864 30.168Z" fill="#EFF8FA"/>
</svg>
