<?xml version="1.0" encoding="iso-8859-1"?>
<!-- Uploaded to: SVG Repo, www.svgrepo.com, Generator: SVG Repo Mixer Tools -->
<!DOCTYPE svg PUBLIC "-//W3C//DTD SVG 1.1//EN" "http://www.w3.org/Graphics/SVG/1.1/DTD/svg11.dtd">
<svg id="Layer_1" data-name="Layer 1" xmlns="http://www.w3.org/2000/svg" viewBox="0 0 1680 1200">
    <defs>
        <style>
            @keyframes rotation {
                from {
                    transform: rotate(0deg);
                }

                to {
                    transform: rotate(359deg);
                }
            }

            @keyframes counter-rotation {
                from {
                    transform: rotate(359deg);
                }

                to {
                    transform: rotate(0deg);
                }
            }
        </style>
    </defs>
    <title>HackUMass Logo Design</title>
    <rect x="1680" width="1680" height="1200" />
    <path style="fill: #ffffff;" d="M566.65,957.2A65.21,65.21,0,0,1,540.14,952a40.87,40.87,0,0,1-18.8-16.63q-7-11.45-7-30.73V786.57a5.63,5.63,0,0,1,3.13-5.31,15.38,15.38,0,0,1,14,0,5.63,5.63,0,0,1,3.13,5.31V904.66q0,17.6,8.56,25.91t23.74,8.31q15.18,0,23.74-8.31t8.56-25.91V786.57a5.63,5.63,0,0,1,3.13-5.31,15.38,15.38,0,0,1,14,0,5.64,5.64,0,0,1,3.13,5.31V904.66q0,19.29-7,30.73A40.76,40.76,0,0,1,593.52,952,66.69,66.69,0,0,1,566.65,957.2Z" />
    <path style="fill: #ffffff;" d="M663.05,955.76a14,14,0,0,1-6.87-1.81,5.84,5.84,0,0,1-3.25-5.42V789.46q0-5.55,3.25-7.71a12.16,12.16,0,0,1,6.87-2.17,14.23,14.23,0,0,1,6.63,1.44,16.84,16.84,0,0,1,5.06,4.22,37.75,37.75,0,0,1,4.46,7.11l38.08,72.54,38.08-72.54a46.81,46.81,0,0,1,4.7-7.11,16.6,16.6,0,0,1,5.06-4.22,13.65,13.65,0,0,1,6.39-1.44,11.83,11.83,0,0,1,7.11,2.17c2,1.44,3,4,3,7.71V948.53A5.89,5.89,0,0,1,778.5,954a14.4,14.4,0,0,1-14,0,5.88,5.88,0,0,1-3.14-5.42V822l-36.63,68.45a12.94,12.94,0,0,1-3.61,4.22A7.17,7.17,0,0,1,717,896a7.46,7.46,0,0,1-3.74-1.21,10.74,10.74,0,0,1-3.73-4.34L673.17,821v127.5A5.87,5.87,0,0,1,670,954,13.79,13.79,0,0,1,663.05,955.76Z" />
    <path style="fill: #ffffff;" d="M815.13,955.76a16.34,16.34,0,0,1-5.43-1.09,12,12,0,0,1-4.82-3,6.19,6.19,0,0,1-1.8-4.34,8,8,0,0,1,.24-1.93l49.4-160.27a7.9,7.9,0,0,1,4.58-5.3,18.09,18.09,0,0,1,7.72-1.69,17.46,17.46,0,0,1,8,1.81,8.28,8.28,0,0,1,4.58,5.18l49.16,160.27a3.83,3.83,0,0,1,.49,1.69,5.87,5.87,0,0,1-2.05,4.34,16.1,16.1,0,0,1-4.94,3.13,14.32,14.32,0,0,1-5.55,1.21,9.24,9.24,0,0,1-4.58-1.09,5.72,5.72,0,0,1-2.65-3.49l-10.84-35.91H833.2l-10.36,35.91a5.58,5.58,0,0,1-2.77,3.49A10.5,10.5,0,0,1,815.13,955.76ZM838,898.64h54L865,808Z" />
    <path style="fill: #ffffff;" d="M990.1,957.68q-15.44,0-27-4.7T945.27,941.9Q939,935.51,939,930.45a10.57,10.57,0,0,1,1.33-4.94,15.07,15.07,0,0,1,3.37-4.34,6.4,6.4,0,0,1,4.22-1.81c1.93,0,3.82,1,5.66,2.89s4.18,4.22,7,6.87a37,37,0,0,0,11,6.87q6.75,2.89,17.59,2.89a43.81,43.81,0,0,0,17.6-3.25,25.67,25.67,0,0,0,11.69-9.88q4.22-6.63,4.21-16.75,0-10.37-4.33-16.87a36.32,36.32,0,0,0-11.45-10.85,106.26,106.26,0,0,0-15.43-7.71l-16.87-6.87A70.94,70.94,0,0,1,959,858a39.25,39.25,0,0,1-11.33-13.38q-4.33-8.19-4.34-20.73,0-13.24,4.82-21.93a37.67,37.67,0,0,1,12.78-13.74,53.33,53.33,0,0,1,17.23-7.11,84.57,84.57,0,0,1,18.2-2,104.6,104.6,0,0,1,13.73,1,90.73,90.73,0,0,1,13.74,2.89,34.27,34.27,0,0,1,10.6,4.94q4.1,3,4.1,7.11a12.82,12.82,0,0,1-1,4.46,13.92,13.92,0,0,1-2.89,4.58,6.35,6.35,0,0,1-4.82,2.05,13.45,13.45,0,0,1-6.51-2.29,60.64,60.64,0,0,0-10.24-4.58q-6.39-2.29-16.75-2.29a53.66,53.66,0,0,0-16.27,2.41,24.58,24.58,0,0,0-12.05,7.95q-4.47,5.55-4.46,14.7,0,8.68,4.34,14.22a33.77,33.77,0,0,0,11.32,9.16A125.28,125.28,0,0,0,994.68,852q8.43,3,16.87,7a75.48,75.48,0,0,1,15.54,9.76,42,42,0,0,1,11.45,15.06q4.34,9.29,4.34,23.26,0,17.35-6.87,28.56a42.07,42.07,0,0,1-18.68,16.63Q1005.53,957.69,990.1,957.68Z" />
    <path style="fill: #ffffff;" d="M1111.09,957.68q-15.43,0-27-4.7t-17.83-11.08q-6.27-6.39-6.27-11.45a10.57,10.57,0,0,1,1.33-4.94,14.9,14.9,0,0,1,3.37-4.34,6.36,6.36,0,0,1,4.22-1.81c1.93,0,3.81,1,5.66,2.89s4.18,4.22,7,6.87a37,37,0,0,0,11,6.87q6.73,2.89,17.59,2.89a43.85,43.85,0,0,0,17.6-3.25,25.64,25.64,0,0,0,11.68-9.88q4.21-6.63,4.22-16.75,0-10.37-4.34-16.87a36.28,36.28,0,0,0-11.44-10.85,106.77,106.77,0,0,0-15.43-7.71l-16.87-6.87A70.71,70.71,0,0,1,1080,858a39.14,39.14,0,0,1-11.33-13.38q-4.34-8.19-4.34-20.73,0-13.24,4.82-21.93a37.65,37.65,0,0,1,12.77-13.74,53.48,53.48,0,0,1,17.24-7.11,84.55,84.55,0,0,1,18.19-2,104.63,104.63,0,0,1,13.74,1,90.73,90.73,0,0,1,13.74,2.89,34.27,34.27,0,0,1,10.6,4.94q4.1,3,4.1,7.11a12.82,12.82,0,0,1-1,4.46,13.79,13.79,0,0,1-2.9,4.58,6.33,6.33,0,0,1-4.82,2.05,13.39,13.39,0,0,1-6.5-2.29,60.79,60.79,0,0,0-10.25-4.58q-6.39-2.29-16.75-2.29a53.75,53.75,0,0,0-16.27,2.41,24.58,24.58,0,0,0-12,7.95q-4.46,5.55-4.46,14.7,0,8.68,4.34,14.22a33.81,33.81,0,0,0,11.33,9.16,125.28,125.28,0,0,0,15.43,6.63q8.43,3,16.87,7a75.48,75.48,0,0,1,15.54,9.76,42,42,0,0,1,11.45,15.06q4.34,9.29,4.34,23.26,0,17.35-6.87,28.56a42.07,42.07,0,0,1-18.68,16.63Q1126.52,957.69,1111.09,957.68Z" />
    <path id="Shape" style="fill: #ffffff;" d="M263.3,617l-12.67-13L397.05,460.84V434.37l59.67-59.65V291.17l23.52-34.79V129.88a13.52,13.52,0,0,1,3.78-3.14,12.52,12.52,0,0,1,5.26-1.19,11.17,11.17,0,0,1,5.37,1,11.77,11.77,0,0,1,3.71,3.31V261.93l-23.52,34.78v85.51l-59.67,59.66v26.58Z" />
    <polygon style="fill: #2832c2;" points="446.66 595.25 428.54 595.25 428.54 448.36 485.54 389.28 521.33 389.28 595.89 303.09 666.32 303.09 666.32 321.21 604.17 321.21 529.61 407.4 489.07 407.4 446.66 451.36 446.66 595.25" />
    <polygon style="fill: #ffffff;" points="555.81 716.65 516.4 680.77 516.4 591.49 461.69 545.1 461.69 448.52 488.76 420.79 558.15 420.79 578.7 400.24 591.51 413.05 565.66 438.9 495.84 438.9 479.81 455.59 479.81 536.72 534.53 583.09 534.53 672.78 537.5 675.49 568 703.26 555.81 716.65" />
    <path style="fill: #2832c2;" d="M337.71,456.35l-12.38-13.23L426.86,348V160.64a19.94,19.94,0,0,1,3.18-2.19A13.29,13.29,0,0,1,436,157.2a12.91,12.91,0,0,1,5,1,28.22,28.22,0,0,1,4,2.42V355.89Z" />
    <path style="fill: #ffffff;" d="M437.6,588.83a28.9,28.9,0,1,0,28.9,28.91A28.9,28.9,0,0,0,437.6,588.83Z" />
    
    <mask id="hole"><rect style="width: 100%; height: 100%; fill: #ffffff;"/><circle id="Oval" style="fill: #000000;" cx="352.27" cy="647.79" r="14.46" /></mask>
    <path style="fill: #ffffff;" d="M352.27,618.85a28.91,28.91,0,1,0,28.88,28.92A28.93,28.93,0,0,0,352.27,618.85Z" mask="url(#hole)"/>
    <mask id="hole2"><rect style="width: 100%; height: 100%; fill: #ffffff;"/><path style="fill: #000000;" d="M437.6,719.1a14.45,14.45,0,1,0,14.46,14.43A14.45,14.45,0,0,0,437.6,719.1Z" /></mask>
    <path style="fill: #ffffff;" d="M437.6,704.65a28.9,28.9,0,1,0,28.9,28.88A28.88,28.88,0,0,0,437.6,704.65Z" mask="url(#hole2)"/>
    <mask id="hole3"><rect style="width: 100%; height: 100%; fill: #ffffff;"/><path style="fill: #000000;" d="M242.51,609.85a14.47,14.47,0,1,0,14.43,14.48A14.47,14.47,0,0,0,242.51,609.85Z" /></mask>
    <path style="fill: #ffffff;" d="M242.51,595.45a28.9,28.9,0,1,0,28.87,28.87A28.87,28.87,0,0,0,242.51,595.45Z" mask="url(#hole3)"/>
    <mask id="hole4"><rect style="width: 100%; height: 100%; fill: #ffffff;"/><path style="fill: #000000;" d="M607.07,381.63a14.45,14.45,0,1,0,14.47,14.46A14.44,14.44,0,0,0,607.07,381.63Z" /></mask>
    <path style="fill: #ffffff;" d="M607.07,367.17A28.9,28.9,0,1,0,636,396.09,28.89,28.89,0,0,0,607.07,367.17Z" mask="url(#hole4)"/>
    <mask id="hole5"><rect style="width: 100%; height: 100%; fill: #ffffff;"/><path style="fill: #000000;" d="M689.11,297.71a14.45,14.45,0,1,0,14.45,14.44A14.44,14.44,0,0,0,689.11,297.71Z" /></mask>
    <path style="fill: #ffffff;" d="M689.11,283.29A28.9,28.9,0,1,0,718,312.16,28.88,28.88,0,0,0,689.11,283.29Z" mask="url(#hole5)"/>
    
    <path style="fill: #2832c2;" d="m 599.81,491.66 v 0 H 550.87974 491.66 l 55.9786,-0.003 -0.0845,-18.11397 3.41796,-0.003 H 592 l 190,-203 c 4.74,-0.66667 8.25667,0.0767 10.55,2.23 2.29333,2.15333 3.16667,5.56333 2.62,10.23 z" />
    <mask id="hole6"><rect style="width: 100%; height: 100%; fill: #ffffff;"/><path style="fill: #000000;" d="M520.39,468.15a14.46,14.46,0,1,0,14.43,14.46A14.46,14.46,0,0,0,520.39,468.15Z" /></mask>
    <path style="fill: #ffffff;" d="M520.39,453.7a28.91,28.91,0,1,0,28.88,28.9A28.91,28.91,0,0,0,520.39,453.7Z" mask="url(#hole6)"/>
    
    <path style="fill: #ffffff;" d="M317,438a28.9,28.9,0,1,0,28.89,28.89A28.9,28.9,0,0,0,317,438Z" />
    <path style="fill: #ffffff;" d="M575.89,697.19a28.9,28.9,0,1,0,28.89,28.93A28.9,28.9,0,0,0,575.89,697.19Z" />
    <path style="fill: #ffffff;" d="M822.48,304.93a28.89,28.89,0,1,0,28.89,28.87A28.88,28.88,0,0,0,822.48,304.93Z" />
    <path style="fill: #ffffff;" d="M767.5,359.9a28.9,28.9,0,1,0,28.9,28.87A28.88,28.88,0,0,0,767.5,359.9Z" />
    <polygon id="Path-2" style="fill: #ffffff;" points="514.35 792.53 515.13 591.93 534.6 591.93 534.6 792.53 514.35 792.53" />
    <path style="fill: #2832c2;" d="M670.68,739.63a13.89,13.89,0,0,1-6.87-1.81,5.84,5.84,0,0,1-3.26-5.42v-162a5.59,5.59,0,0,1,3.26-5.3,14.79,14.79,0,0,1,6.87-1.69,14.57,14.57,0,0,1,7,1.69,5.62,5.62,0,0,1,3.13,5.3v69.41h65.31V570.44a5.59,5.59,0,0,1,3.26-5.3,14.79,14.79,0,0,1,6.87-1.69,14.56,14.56,0,0,1,7,1.69,5.61,5.61,0,0,1,3.14,5.3v162a5.87,5.87,0,0,1-3.14,5.42,13.68,13.68,0,0,1-7,1.81,13.89,13.89,0,0,1-6.87-1.81,5.84,5.84,0,0,1-3.26-5.42V656.72H680.8V732.4a5.88,5.88,0,0,1-3.13,5.42A13.69,13.69,0,0,1,670.68,739.63Z" />
    <path style="fill: #2832c2;" d="M799.86,739.63a16.09,16.09,0,0,1-5.43-1.09,12,12,0,0,1-4.82-3,6.19,6.19,0,0,1-1.8-4.34,7.43,7.43,0,0,1,.24-1.92L837.45,569a7.92,7.92,0,0,1,4.58-5.3,18.09,18.09,0,0,1,7.72-1.69,17.59,17.59,0,0,1,8,1.81,8.33,8.33,0,0,1,4.58,5.18l49.16,160.28a3.9,3.9,0,0,1,.49,1.68,5.85,5.85,0,0,1-2,4.34,16.1,16.1,0,0,1-4.94,3.13,14.32,14.32,0,0,1-5.55,1.21,9.13,9.13,0,0,1-4.58-1.09,5.69,5.69,0,0,1-2.65-3.49l-10.84-35.91H817.93l-10.36,35.91a5.56,5.56,0,0,1-2.77,3.49A10.39,10.39,0,0,1,799.86,739.63Zm22.89-57.12h54l-27-90.62Z" />
    <path style="fill: #2832c2;" d="M982.78,741.08A63.38,63.38,0,0,1,957,735.89a40.69,40.69,0,0,1-18.8-16.75q-7-11.57-7-30.6V616q0-19,7.11-30.61a41.47,41.47,0,0,1,18.92-16.75A63.54,63.54,0,0,1,983,563.45q16.4,0,28,5.54a43,43,0,0,1,17.83,15.07,38,38,0,0,1,6.27,21.33q0,6.75-2.53,8.91t-7.59,2.17q-4.83,0-7.35-1.93a6.74,6.74,0,0,1-2.78-5.06,53.43,53.43,0,0,0-1.32-8.31,25.14,25.14,0,0,0-4.34-9.16,23.94,23.94,0,0,0-9.4-7.35q-6.15-2.89-16.27-2.89-15.42,0-23.74,8.31T951.45,616v72.55q0,17.6,8.43,25.9t24.35,8.32q10.11,0,16-2.89a21.73,21.73,0,0,0,8.8-7.23,29.24,29.24,0,0,0,4.1-9.28,73.89,73.89,0,0,0,1.68-9.28,6.36,6.36,0,0,1,2.9-5.3,13.29,13.29,0,0,1,7.23-1.69q5.05,0,7.59,2.29t2.53,9a38.57,38.57,0,0,1-6.39,21.57,43.77,43.77,0,0,1-18.07,15.42Q998.92,741.08,982.78,741.08Z" />
    <path style="fill: #2832c2;" d="M1071.23,739.63a13.89,13.89,0,0,1-6.87-1.81,5.83,5.83,0,0,1-3.25-5.42v-162a5.58,5.58,0,0,1,3.25-5.3,14.79,14.79,0,0,1,6.87-1.69,14.57,14.57,0,0,1,7,1.69,5.6,5.6,0,0,1,3.13,5.3v79.77l64.84-83.87a7.11,7.11,0,0,1,6-2.89,10.29,10.29,0,0,1,5.3,1.57,14.34,14.34,0,0,1,4.34,3.85,8.22,8.22,0,0,1,1.69,4.94,11.14,11.14,0,0,1-.24,2.17,4.19,4.19,0,0,1-1.21,2.17l-49.16,61.46,57.12,86.76a6.16,6.16,0,0,1,1.2,3.62,8.11,8.11,0,0,1-1.69,4.94,13.11,13.11,0,0,1-4.33,3.74,12,12,0,0,1-5.79,1.44,8.6,8.6,0,0,1-3.86-1,8.85,8.85,0,0,1-3.37-3.14l-52.78-79.29-18.08,22.42V732.4a5.86,5.86,0,0,1-3.13,5.42A13.69,13.69,0,0,1,1071.23,739.63Z" />
    <!-- Binary Number  -->
    <path style="fill: #ffffff;" d="M599.28,1059.72a28.61,28.61,0,0,1-11.4-2.2,17.21,17.21,0,0,1-8-7.1q-2.94-4.9-3-13v-29.1q0-8.1,3-13a17.18,17.18,0,0,1,8-7.1,28.38,28.38,0,0,1,11.45-2.2,28.79,28.79,0,0,1,11.45,2.2,17,17,0,0,1,8.1,7.1q3,4.89,2.95,13v29.1q0,8.1-2.95,13a17.16,17.16,0,0,1-8.05,7.1A28.87,28.87,0,0,1,599.28,1059.72Zm0-9.4c3.74,0,6.65-1,8.75-3.15s3.15-5.35,3.15-9.75v-29.1q0-6.6-3.15-9.75c-2.1-2.1-5-3.15-8.75-3.15s-6.63,1.05-8.7,3.15-3.1,5.35-3.1,9.75v29.1q0,6.6,3.1,9.75T599.28,1050.32Zm.1-23.1a4.13,4.13,0,0,1-3.1-1.25,4.39,4.39,0,0,1-1.2-3.15,3.9,3.9,0,0,1,1.2-3,4.29,4.29,0,0,1,3.1-1.15,4.09,4.09,0,0,1,3,1.15,4,4,0,0,1,1.15,3,4.48,4.48,0,0,1-1.15,3.15A3.94,3.94,0,0,1,599.38,1027.22Z" />
    <path style="fill: #ffffff;" d="M669.18,1059.72a28.61,28.61,0,0,1-11.4-2.2,17.21,17.21,0,0,1-8-7.1q-2.94-4.9-3-13v-29.1q0-8.1,3-13a17.18,17.18,0,0,1,8-7.1,28.38,28.38,0,0,1,11.45-2.2,28.79,28.79,0,0,1,11.45,2.2,17,17,0,0,1,8.1,7.1q3,4.89,2.95,13v29.1q0,8.1-2.95,13a17.16,17.16,0,0,1-8.05,7.1A28.87,28.87,0,0,1,669.18,1059.72Zm0-9.4c3.74,0,6.65-1,8.75-3.15s3.15-5.35,3.15-9.75v-29.1q0-6.6-3.15-9.75c-2.1-2.1-5-3.15-8.75-3.15s-6.63,1.05-8.7,3.15-3.1,5.35-3.1,9.75v29.1q0,6.6,3.1,9.75T669.18,1050.32Zm.1-23.1a4.13,4.13,0,0,1-3.1-1.25,4.39,4.39,0,0,1-1.2-3.15,3.9,3.9,0,0,1,1.2-3,4.29,4.29,0,0,1,3.1-1.15,4.09,4.09,0,0,1,3.05,1.15,4,4,0,0,1,1.15,3,4.48,4.48,0,0,1-1.15,3.15A3.94,3.94,0,0,1,669.28,1027.22Z" />
    <path style="fill: #ffffff;" d="M739.08,1059.72a28.61,28.61,0,0,1-11.4-2.2,17.21,17.21,0,0,1-8-7.1q-2.94-4.9-3-13v-29.1q0-8.1,3-13a17.18,17.18,0,0,1,8-7.1,28.35,28.35,0,0,1,11.45-2.2,28.79,28.79,0,0,1,11.45,2.2,17,17,0,0,1,8.1,7.1q3,4.89,3,13v29.1q0,8.1-3,13a17.16,17.16,0,0,1-8,7.1A28.87,28.87,0,0,1,739.08,1059.72Zm0-9.4q5.59,0,8.75-3.15t3.15-9.75v-29.1q0-6.6-3.15-9.75t-8.75-3.15q-5.6,0-8.7,3.15t-3.1,9.75v29.1q0,6.6,3.1,9.75T739.08,1050.32Zm.1-23.1a4.13,4.13,0,0,1-3.1-1.25,4.39,4.39,0,0,1-1.2-3.15,3.9,3.9,0,0,1,1.2-3,4.29,4.29,0,0,1,3.1-1.15,4.11,4.11,0,0,1,3.05,1.15,4,4,0,0,1,1.15,3,4.48,4.48,0,0,1-1.15,3.15A4,4,0,0,1,739.18,1027.22Z" />
    <path style="fill: #ffffff;" d="M809,1059.72a28.61,28.61,0,0,1-11.4-2.2,17.21,17.21,0,0,1-8.05-7.1q-3-4.9-2.95-13v-29.1q0-8.1,2.95-13a17.13,17.13,0,0,1,8-7.1A28.35,28.35,0,0,1,809,986a28.79,28.79,0,0,1,11.45,2.2,17.08,17.08,0,0,1,8.1,7.1q3,4.89,3,13v29.1q0,8.1-3,13a17.21,17.21,0,0,1-8,7.1A28.87,28.87,0,0,1,809,1059.72Zm0-9.4q5.6,0,8.75-3.15t3.15-9.75v-29.1q0-6.6-3.15-9.75T809,995.42q-5.6,0-8.7,3.15t-3.1,9.75v29.1q0,6.6,3.1,9.75T809,1050.32Zm.1-23.1A4.11,4.11,0,0,1,806,1026a4.39,4.39,0,0,1-1.2-3.15,3.9,3.9,0,0,1,1.2-3,4.28,4.28,0,0,1,3.1-1.15,4.11,4.11,0,0,1,3,1.15,4,4,0,0,1,1.15,3,4.48,4.48,0,0,1-1.15,3.15A4,4,0,0,1,809.08,1027.22Z" />
    <path style="fill: #ffffff;" d="M901.78,1059.12a7.51,7.51,0,0,1-3.65-.9,2.83,2.83,0,0,1-1.65-2.6V1000l-3.5,4.4a5.34,5.34,0,0,1-1.15.75,2.67,2.67,0,0,1-1.05.25,3.09,3.09,0,0,1-2.6-1.35,4.84,4.84,0,0,1-1-3,4.73,4.73,0,0,1,.6-2.3,5.56,5.56,0,0,1,1.5-1.8l10.4-10a3.83,3.83,0,0,1,1.15-.8,3.66,3.66,0,0,1,1.55-.3,6.13,6.13,0,0,1,3.2.9,2.86,2.86,0,0,1,1.5,2.6v66.2a2.83,2.83,0,0,1-1.65,2.6A7.51,7.51,0,0,1,901.78,1059.12Z" />
    <path style="fill: #ffffff;" d="M955.58,1059.72a28.61,28.61,0,0,1-11.4-2.2,17.21,17.21,0,0,1-8-7.1q-3-4.9-3-13v-29.1q0-8.1,3-13a17.13,17.13,0,0,1,8-7.1,28.35,28.35,0,0,1,11.45-2.2,28.79,28.79,0,0,1,11.45,2.2,17.08,17.08,0,0,1,8.1,7.1q3,4.89,3,13v29.1q0,8.1-3,13a17.21,17.21,0,0,1-8,7.1A28.87,28.87,0,0,1,955.58,1059.72Zm0-9.4q5.59,0,8.75-3.15t3.15-9.75v-29.1q0-6.6-3.15-9.75t-8.75-3.15q-5.6,0-8.7,3.15t-3.1,9.75v29.1q0,6.6,3.1,9.75T955.58,1050.32Zm.1-23.1a4.11,4.11,0,0,1-3.1-1.25,4.39,4.39,0,0,1-1.2-3.15,3.9,3.9,0,0,1,1.2-3,4.28,4.28,0,0,1,3.1-1.15,4.11,4.11,0,0,1,3.05,1.15,4,4,0,0,1,1.15,3,4.48,4.48,0,0,1-1.15,3.15A4,4,0,0,1,955.68,1027.22Z" />
    <path style="fill: #ffffff;" d="M1022.48,1059.72a7.48,7.48,0,0,1-3.65-.9,2.83,2.83,0,0,1-1.65-2.6V1000l-3.5,4.4a5.6,5.6,0,0,1-1.15.75,2.67,2.67,0,0,1-1,.25,3.08,3.08,0,0,1-2.6-1.35,4.84,4.84,0,0,1-1-3,4.73,4.73,0,0,1,.6-2.3,5.56,5.56,0,0,1,1.5-1.8l10.4-10a3.71,3.71,0,0,1,1.15-.8,3.66,3.66,0,0,1,1.55-.3,6.13,6.13,0,0,1,3.2.9,2.86,2.86,0,0,1,1.5,2.6v66.2a2.83,2.83,0,0,1-1.65,2.6A7.51,7.51,0,0,1,1022.48,1059.72Z" />
    <path style="fill: #ffffff;" d="M1083.48,1059.72a7.48,7.48,0,0,1-3.65-.9,2.83,2.83,0,0,1-1.65-2.6V1000l-3.5,4.4a5.6,5.6,0,0,1-1.15.75,2.67,2.67,0,0,1-1,.25,3.08,3.08,0,0,1-2.6-1.35,4.84,4.84,0,0,1-1-3,4.73,4.73,0,0,1,.6-2.3,5.56,5.56,0,0,1,1.5-1.8l10.4-10a3.71,3.71,0,0,1,1.15-.8,3.66,3.66,0,0,1,1.55-.3,6.13,6.13,0,0,1,3.2.9,2.86,2.86,0,0,1,1.5,2.6v66.2a2.83,2.83,0,0,1-1.65,2.6A7.51,7.51,0,0,1,1083.48,1059.72Z" />
    <!-- Gears -->
    <g style="animation: rotation 5s infinite linear; transform-origin: 1278.775px 673.9951px;">
        <path style="fill: #2832c2;" d="M1284.07,577.25h-11.65l-2.21,16.08a69.56,69.56,0,0,0-15.53,3.33l-7.76-13.86-10.53,4.43,3.88,15.52c-4.44,2.78-8.87,5.55-13.31,8.88l-12.75-10.54-8.32,8.32,9.43,12.75a79,79,0,0,0-8.87,13.31l-15.53-3.89-4.43,10.54,13.86,7.76A70.73,70.73,0,0,0,1197,665.4l-15,2.22v11.64l16.08,2.22a70.13,70.13,0,0,0,3.33,15.53L1187,704.77l4.44,10.53,15.52-3.88c2.77,4.44,5.55,8.87,8.87,13.31l-9.42,12.75,7.76,8.32,12.75-9.43a79,79,0,0,0,13.31,8.87l-3.88,15.52,10.53,4.44,7.76-13.86a70.7,70.7,0,0,0,15.53,3.33l2.21,16.07h11.65l2.21-16.07a70.7,70.7,0,0,0,15.53-3.33l7.76,13.86,10.53-4.44-3.88-15.52c4.44-2.77,8.87-5.54,13.31-8.87l12.75,9.43,8.32-8.32-9.43-12.75a79,79,0,0,0,8.87-13.31l15.53,3.88,4.43-10.53L1356.14,697a70.7,70.7,0,0,0,3.33-15.53l16.08-2.22V667.62l-16.08-2.22a70.73,70.73,0,0,0-3.33-15.52l13.86-7.76-4.43-10.54L1350,635.47c-2.77-4.44-5.54-8.88-8.87-13.31l9.43-12.75-8.32-8.32-12.75,9.43a79,79,0,0,0-13.31-8.87l3.88-15.53-10.53-4.43-7.76,13.86a70.13,70.13,0,0,0-15.53-3.33ZM1320.38,674a41.58,41.58,0,1,1-41.58-41.58A41.46,41.46,0,0,1,1320.38,674Z" />
        <path style="fill: #ffffff;" d="M1308.57,670.51h-4.21a25.77,25.77,0,0,0-5-12.15l3-3a3.49,3.49,0,1,0-4.94-4.93l-3,3a25.32,25.32,0,0,0-12.14-5v-4.21a3.5,3.5,0,0,0-7,0v4.21a25.74,25.74,0,0,0-12.14,5l-3-3a3.49,3.49,0,0,0-4.94,4.93l3,3a25.3,25.3,0,0,0-5,12.15h-4.21a3.49,3.49,0,1,0,0,7h4.21a25.72,25.72,0,0,0,5,12.14l-3,3a3.47,3.47,0,0,0,2.44,5.93,3.67,3.67,0,0,0,2.5-1l3-3a25.27,25.27,0,0,0,12.14,5v4.22a3.5,3.5,0,0,0,7,0v-4.22a25.72,25.72,0,0,0,12.14-5l3,3a3.46,3.46,0,0,0,2.5,1,3.65,3.65,0,0,0,2.49-1,3.44,3.44,0,0,0,0-4.93l-3-3a25.23,25.23,0,0,0,5-12.14h4.22a3.47,3.47,0,0,0,3.49-3.49A3.53,3.53,0,0,0,1308.57,670.51Zm-29.77,22.34A18.85,18.85,0,1,1,1297.65,674,18.87,18.87,0,0,1,1278.8,692.85Z" />
    </g>
    <g style="animation: counter-rotation 3.75s infinite linear; transform-origin: 1392.455px 787.4351px;">
        <path style="fill: #2832c2;" d="M1398.28,712h-11.65l-2.21,15.52c-5.55.55-10.59,2.22-15.58,3.88l-9.48-12.75-10,6.1,6.1,15a69.17,69.17,0,0,0-11.14,11.09l-14.47-6.1-6.1,10,12.8,9.42a49.51,49.51,0,0,0-3.88,15.53l-15.58,2.21v11.65l15.58,2.21c.56,5.55,2.22,10.54,3.88,15.53l-12.8,9.42,6.1,10,14.47-6.1c3.32,4.44,7.2,7.77,11.14,11.09l-6.1,14.42,10,6.1,9.48-12.76a49.27,49.27,0,0,0,15.58,3.88l2.21,15.53h11.65l2.21-15.53c5.55-.55,10.59-2.21,15.58-3.88l9.48,12.76,10-6.1-6.1-14.42a69.58,69.58,0,0,0,11.14-11.09l14.48,6.1,6.09-10-12.8-9.42a49.51,49.51,0,0,0,3.88-15.53l15.58-2.21V781.83l-15.58-2.21c-.56-5.55-2.22-10.54-3.88-15.53l12.8-9.42-6.09-10-14.48,6.1c-3.32-4.44-7.2-7.77-11.14-11.09l6.1-14.42-10-6.1-9.48,12.76a49.55,49.55,0,0,0-15.58-3.89Zm22,75.4a27.84,27.84,0,1,1-27.83-27.72C1407.87,760,1420.29,772.41,1420.29,787.38Z" />
        <path style="fill: #ffffff;" d="M1412.53,785h-2.82a17.26,17.26,0,0,0-3.4-8.21l2-2a2.36,2.36,0,1,0-3.34-3.33l-2,2a17.36,17.36,0,0,0-8.21-3.4v-2.82a2.36,2.36,0,0,0-2.37-2.37,2.32,2.32,0,0,0-2.37,2.37v2.82a17.2,17.2,0,0,0-8.21,3.4l-2-2a2.36,2.36,0,0,0-3.34,3.33l2,2a17.36,17.36,0,0,0-3.4,8.21h-2.82a2.36,2.36,0,0,0-2.37,2.37,2.33,2.33,0,0,0,2.37,2.37h2.82a17.26,17.26,0,0,0,3.4,8.2l-2,2a2.41,2.41,0,0,0,0,3.33,2.32,2.32,0,0,0,3.34,0l2-2a17.34,17.34,0,0,0,8.21,3.39v2.83a2.36,2.36,0,0,0,2.37,2.37,2.33,2.33,0,0,0,2.37-2.37v-2.83a17.28,17.28,0,0,0,8.21-3.39l2,2a2.32,2.32,0,0,0,3.34,0,2.41,2.41,0,0,0,0-3.33l-2-2a17.28,17.28,0,0,0,3.4-8.2h2.82a2.37,2.37,0,0,0,2.37-2.37A2.33,2.33,0,0,0,1412.53,785Zm-20.07,15.06a12.7,12.7,0,1,1,12.7-12.69A12.73,12.73,0,0,1,1392.46,800.07Z" />
    </g>
    <g style="animation: rotation 2.5s infinite linear; transform-origin: 1307.025px 873.845px;">
        <path style="fill: #2832c2;" d="M1312.84,818.42h-11.59L1299,834.5a41.63,41.63,0,0,0-14.36,6.1l-12.7-10-8.26,8.32,9.92,12.75a45.62,45.62,0,0,0-6,14.42l-16,2.21v11.09l16,2.22a43.07,43.07,0,0,0,6,14.41l-9.92,12.76,8.26,8.31,12.7-10a46.78,46.78,0,0,0,14.36,6.1l2.21,16.08h11.59l2.22-16.08a41.8,41.8,0,0,0,14.36-6.1l12.69,10,8.26-8.31L1340.45,896a45.48,45.48,0,0,0,6-14.41l16-2.22V867.77l-16-2.22a42.66,42.66,0,0,0-6-14.41l9.92-12.76-8.26-8.31-12.69,10a46.88,46.88,0,0,0-14.36-6.1Zm10.81,55.45a16.58,16.58,0,1,1-16.58-16.64A16.56,16.56,0,0,1,1323.65,873.87Z" />
        <path style="fill: #ffffff;" d="M1318.19,872.54h-1.57a10.16,10.16,0,0,0-1.9-4.55l1.07-1.08a1.29,1.29,0,0,0,0-1.82,1.31,1.31,0,0,0-1.82,0l-1.07,1.08a9.74,9.74,0,0,0-4.56-1.91v-1.57a1.33,1.33,0,0,0-2.65,0v1.57a10.11,10.11,0,0,0-4.55,1.91l-1.07-1.08a1.29,1.29,0,0,0-1.83,1.82l1.08,1.08a9.65,9.65,0,0,0-1.9,4.55h-1.58a1.33,1.33,0,0,0,0,2.65h1.58a10,10,0,0,0,1.9,4.55l-1.08,1.08a1.31,1.31,0,0,0,0,1.82,1.21,1.21,0,0,0,1.83,0l1.07-1.07a9.84,9.84,0,0,0,4.55,1.9V885a1.33,1.33,0,1,0,2.65,0v-1.57a10.19,10.19,0,0,0,4.56-1.9l1.07,1.07a1.33,1.33,0,0,0,.91.42,1.31,1.31,0,0,0,.91-.42,1.29,1.29,0,0,0,0-1.82l-1.07-1.08a9.75,9.75,0,0,0,1.9-4.55h1.57a1.33,1.33,0,1,0,0-2.65Zm-11.09,8.36a7,7,0,1,1,7-7A7,7,0,0,1,1307.1,880.9Z" />
    </g>
</svg>
