<svg width="157" height="112" viewBox="0 0 157 112" fill="none" xmlns="http://www.w3.org/2000/svg">
<path d="M52.9594 89.3384C52.109 89.3478 51.2679 89.1891 50.4829 88.8531C49.7446 88.5358 49.1372 87.9851 48.726 87.3038C48.2868 86.5944 48.0718 85.6331 48.0718 84.4384V73.4158C48.0625 73.2104 48.1746 73.0144 48.3615 72.9211C48.7727 72.7158 49.2587 72.7158 49.6699 72.9211C49.8568 73.0144 49.9689 73.2104 49.9596 73.4158V84.4384C49.9596 85.5304 50.2306 86.3424 50.7633 86.8558C51.2959 87.3691 52.0342 87.6304 52.9781 87.6304C53.9219 87.6304 54.6602 87.3691 55.1929 86.8558C55.7256 86.3424 55.9966 85.5304 55.9966 84.4384V73.4158C55.9872 73.2104 56.0994 73.0144 56.2863 72.9211C56.6975 72.7158 57.1834 72.7158 57.5946 72.9211C57.7815 73.0144 57.8937 73.2104 57.8843 73.4158V84.4384C57.8843 85.6424 57.6694 86.5944 57.2302 87.3038C56.819 87.9944 56.2022 88.5358 55.4639 88.8531C54.6696 89.1891 53.8098 89.3478 52.95 89.3384H52.9594Z" fill="white"/>
<path d="M61.9591 89.2082C61.7348 89.2082 61.5105 89.1522 61.3142 89.0402C61.118 88.9469 61.0058 88.7509 61.0152 88.5362V73.6869C61.0152 73.3416 61.118 73.0989 61.3142 72.9682C61.5011 72.8376 61.7254 72.7629 61.9591 72.7629C62.174 72.7629 62.3889 72.8002 62.5758 72.8936C62.7534 72.9962 62.9216 73.1269 63.0525 73.2856C63.2113 73.4909 63.3515 73.7149 63.473 73.9482L67.0335 80.7149L70.5941 73.9482C70.7156 73.7149 70.8651 73.4909 71.0333 73.2856C71.1641 73.1269 71.323 72.9869 71.5099 72.8936C71.6968 72.8002 71.9024 72.7536 72.108 72.7629C72.3416 72.7629 72.5753 72.8282 72.7715 72.9682C72.9584 73.0989 73.0519 73.3416 73.0519 73.6869V88.5362C73.0612 88.7509 72.9491 88.9469 72.7622 89.0496C72.351 89.2736 71.865 89.2736 71.4538 89.0496C71.2669 88.9469 71.1548 88.7509 71.1641 88.5456V76.7296L67.7438 83.1229C67.6597 83.2816 67.5475 83.4122 67.4073 83.5149C67.2952 83.5989 67.1644 83.6362 67.0242 83.6362C66.9027 83.6362 66.7812 83.5896 66.6784 83.5242C66.5289 83.4216 66.4074 83.2816 66.3326 83.1229L62.931 76.6456V88.5456C62.9403 88.7602 62.8282 88.9562 62.6319 89.0589C62.4357 89.1709 62.2114 89.2269 61.9777 89.2269L61.9591 89.2082Z" fill="white"/>
<path d="M76.1732 89.2078C75.9956 89.2078 75.8274 89.1705 75.6685 89.1052C75.5003 89.0492 75.3415 88.9558 75.22 88.8252C75.1172 88.7132 75.0518 88.5732 75.0518 88.4238C75.0518 88.3585 75.0518 88.3025 75.0704 88.2465L79.687 73.2852C79.7431 73.0612 79.9019 72.8838 80.1169 72.7905C80.3412 72.6878 80.5935 72.6318 80.8365 72.6318C81.0981 72.6318 81.3505 72.6878 81.5841 72.7998C81.7897 72.8932 81.9485 73.0705 82.014 73.2852L86.6118 88.2465C86.6399 88.2932 86.6585 88.3492 86.6585 88.4052C86.6585 88.5638 86.5838 88.7132 86.4716 88.8065C86.3408 88.9278 86.1819 89.0305 86.0137 89.0958C85.8455 89.1705 85.6773 89.2078 85.4997 89.2078C85.3502 89.2078 85.2007 89.1798 85.0699 89.1052C84.9484 89.0305 84.8549 88.9185 84.8175 88.7785L83.8082 85.4278H77.8834L76.9115 88.7785C76.8741 88.9185 76.7806 89.0398 76.6498 89.1052C76.5096 89.1798 76.3507 89.2078 76.1919 89.2078H76.1732ZM78.3132 83.8692H83.3597L80.8365 75.4132L78.3132 83.8692Z" fill="white"/>
<path d="M92.5274 89.3855C91.5648 89.3855 90.7237 89.2362 90.0042 88.9469C89.2846 88.6575 88.7332 88.3122 88.3407 87.9109C87.9482 87.5095 87.752 87.1549 87.752 86.8375C87.752 86.6789 87.7987 86.5202 87.8734 86.3802C87.9482 86.2309 88.0603 86.0909 88.1912 85.9789C88.294 85.8762 88.4342 85.8202 88.5837 85.8109C88.7612 85.8109 88.9388 85.9042 89.1164 86.0815C89.2939 86.2589 89.5089 86.4735 89.7705 86.7255C90.0696 86.9962 90.4247 87.2109 90.7985 87.3695C91.219 87.5469 91.7704 87.6402 92.4433 87.6402C93.004 87.6495 93.5647 87.5469 94.088 87.3415C94.5366 87.1549 94.9198 86.8282 95.1814 86.4175C95.4431 86.0069 95.5739 85.4842 95.5739 84.8495C95.5739 84.2055 95.4431 83.6829 95.1721 83.2722C94.8917 82.8615 94.5273 82.5162 94.0974 82.2642C93.6395 81.9842 93.1535 81.7415 92.6582 81.5455L91.0789 80.9015C90.5649 80.6962 90.0696 80.4162 89.621 80.0895C89.1818 79.7629 88.8173 79.3335 88.565 78.8389C88.294 78.3255 88.1631 77.6815 88.1631 76.9069C88.1631 76.0855 88.3127 75.4042 88.6117 74.8629C88.8921 74.3402 89.3033 73.9015 89.8079 73.5842C90.3032 73.2669 90.8452 73.0429 91.4153 72.9215C91.976 72.8002 92.5461 72.7349 93.1161 72.7349C93.546 72.7349 93.9759 72.7722 94.3964 72.8282C94.8263 72.8842 95.2562 72.9775 95.6767 73.0989C96.0318 73.1922 96.3683 73.3509 96.6673 73.5562C96.9196 73.7429 97.0505 73.9669 97.0505 74.2189C97.0505 74.3589 97.0131 74.4989 96.957 74.6389C96.8916 74.7975 96.8075 74.9469 96.686 75.0682C96.5739 75.1895 96.4057 75.2642 96.2374 75.2549C96.0225 75.2362 95.8075 75.1615 95.63 75.0402C95.3216 74.8722 95.0039 74.7229 94.6768 74.6109C94.2749 74.4709 93.7609 74.3962 93.1068 74.3962C92.5928 74.3962 92.0788 74.4709 91.5835 74.6202C91.1443 74.7509 90.7518 75.0122 90.4621 75.3669C90.1817 75.7122 90.0415 76.1695 90.0415 76.7389C90.0415 77.2802 90.1724 77.7189 90.4434 78.0642C90.7331 78.4189 91.0882 78.7175 91.4994 78.9229C91.9667 79.1562 92.4526 79.3615 92.9479 79.5389C93.4712 79.7255 93.9946 79.9402 94.5273 80.1922C95.0506 80.4349 95.5365 80.7429 95.9758 81.1069C96.4337 81.4895 96.7981 81.9655 97.0411 82.5162C97.3121 83.0949 97.443 83.8135 97.443 84.6909C97.443 85.5682 97.228 86.6602 96.7982 87.3602C96.387 88.0415 95.7795 88.5829 95.0506 88.9095C94.3123 89.2455 93.4712 89.4135 92.5087 89.4135L92.5274 89.3855Z" fill="white"/>
<path d="M103.835 89.3855C102.872 89.3855 102.031 89.2362 101.312 88.9469C100.592 88.6575 100.031 88.3122 99.6483 87.9109C99.2558 87.5095 99.0596 87.1549 99.0596 86.8375C99.0596 86.6789 99.1063 86.5202 99.1811 86.3802C99.2558 86.2309 99.368 86.0909 99.4988 85.9789C99.6016 85.8762 99.7418 85.8109 99.8913 85.8109C100.069 85.8109 100.246 85.9042 100.424 86.0815C100.602 86.2589 100.816 86.4735 101.078 86.7255C101.377 86.9962 101.732 87.2109 102.106 87.3695C102.527 87.5469 103.069 87.6402 103.751 87.6402C104.312 87.6495 104.872 87.5469 105.396 87.3415C105.844 87.1549 106.227 86.8282 106.489 86.4175C106.751 86.0069 106.882 85.4842 106.882 84.8495C106.882 84.2055 106.751 83.6829 106.48 83.2722C106.199 82.8615 105.835 82.5162 105.414 82.2642C104.956 81.9842 104.47 81.7415 103.975 81.5455L102.396 80.9015C101.882 80.6962 101.387 80.4162 100.938 80.0895C100.499 79.7629 100.134 79.3335 99.882 78.8389C99.6109 78.3255 99.4801 77.6815 99.4801 76.9069C99.4801 76.1322 99.6296 75.4042 99.9287 74.8629C100.209 74.3402 100.62 73.9015 101.125 73.5842C101.62 73.2669 102.162 73.0429 102.732 72.9215C103.293 72.8002 103.863 72.7349 104.433 72.7349C104.863 72.7349 105.293 72.7722 105.713 72.8282C106.143 72.8842 106.573 72.9775 106.994 73.0989C107.349 73.1922 107.685 73.3509 107.984 73.5562C108.237 73.7429 108.367 73.9669 108.367 74.2189C108.367 74.3589 108.33 74.4989 108.274 74.6389C108.209 74.7975 108.124 74.9469 108.003 75.0682C107.891 75.1895 107.723 75.2642 107.554 75.2549C107.339 75.2362 107.125 75.1615 106.947 75.0402C106.639 74.8722 106.321 74.7229 105.994 74.6109C105.592 74.4709 105.078 74.3962 104.424 74.3962C103.91 74.3962 103.396 74.4709 102.9 74.6202C102.461 74.7509 102.069 75.0122 101.779 75.3669C101.499 75.7122 101.358 76.1695 101.358 76.7389C101.358 77.3082 101.489 77.7189 101.76 78.0642C102.05 78.4189 102.405 78.7175 102.816 78.9229C103.284 79.1655 103.76 79.3709 104.256 79.5389C104.779 79.7255 105.302 79.9402 105.835 80.1922C106.358 80.4349 106.844 80.7429 107.283 81.1069C107.741 81.4895 108.106 81.9655 108.349 82.5162C108.62 83.0949 108.751 83.8135 108.751 84.6909C108.751 85.5682 108.536 86.6602 108.106 87.3602C107.695 88.0415 107.087 88.5829 106.358 88.9095C105.62 89.2455 104.77 89.4135 103.816 89.4135L103.835 89.3855Z" fill="white"/>
<path d="M24.6058 57.5864L23.4189 56.3731L37.1004 43.0078V40.5344L42.6795 34.9718V27.1784L44.8756 23.9304V12.1238C44.9784 12.0024 45.0906 11.9091 45.2307 11.8344C45.3803 11.7598 45.5485 11.7224 45.726 11.7224C45.8942 11.7131 46.0718 11.7411 46.2307 11.8158C46.3709 11.8904 46.483 12.0024 46.5764 12.1238V24.4531L44.3803 27.7011V35.6811L38.8012 41.2531V43.7358L24.6058 57.5958V57.5864Z" fill="white"/>
<path d="M41.7453 55.5522H40.0444V41.8509L45.3712 36.3349H48.7168L55.6884 28.2896H62.2674V29.9789H56.464L49.4925 38.0242H45.7076L41.7453 42.1309V55.5522Z" fill="white"/>
<path d="M51.9408 66.8921L48.2588 63.5414V55.2067L43.147 50.876V41.86L45.6795 39.2747H52.1651L54.0809 37.3521L55.2771 38.5467L52.866 40.964H46.3337L44.8385 42.5227V50.0921L49.9503 54.4227V62.7947L50.2307 63.0467L53.081 65.6414L51.9408 66.8921Z" fill="white"/>
<path d="M31.5587 42.5976L30.3999 41.3656L39.8853 32.4896V14.9989C39.9788 14.9242 40.0816 14.8496 40.1844 14.7936C40.3619 14.7096 40.5488 14.6722 40.7451 14.6816C40.904 14.6816 41.0628 14.7096 41.2123 14.7749C41.3432 14.8402 41.4647 14.9149 41.5862 14.9989V33.2269L31.5587 42.6069V42.5976Z" fill="white"/>
<path d="M40.8946 54.9546C39.3994 54.9546 38.1938 56.1586 38.1938 57.6519C38.1938 59.1453 39.3994 60.3493 40.8946 60.3493C42.3899 60.3493 43.5954 59.1453 43.5954 57.6519C43.5954 56.1586 42.3899 54.9546 40.8946 54.9546Z" fill="white"/>
<path d="M32.9234 57.7549C31.4282 57.7549 30.2227 58.9589 30.2227 60.4522C30.2227 61.9456 31.4282 63.1495 32.9234 63.1495C34.4187 63.1495 35.6242 61.9456 35.6242 60.4522C35.6242 58.9589 34.4187 57.7549 32.9234 57.7549Z" fill="white"/>
<path d="M40.8946 65.772C39.3994 65.772 38.1938 66.976 38.1938 68.4693C38.1938 69.9626 39.3994 71.1666 40.8946 71.1666C42.3899 71.1666 43.5954 69.9626 43.5954 68.4693C43.5954 66.976 42.3899 65.772 40.8946 65.772Z" fill="white"/>
<path d="M22.6622 55.5801C21.167 55.5801 19.9614 56.7841 19.9614 58.2774C19.9614 59.7707 21.167 60.9747 22.6622 60.9747C24.1574 60.9747 25.363 59.7707 25.363 58.2774C25.363 56.7934 24.1574 55.5801 22.6622 55.5801Z" fill="white"/>
<path d="M56.735 34.272C55.2397 34.272 54.0342 35.4853 54.0342 36.9693C54.0342 38.4626 55.2491 39.6666 56.735 39.6666C58.2208 39.6666 59.4357 38.4626 59.4357 36.9693C59.4357 35.476 58.2302 34.272 56.735 34.272Z" fill="white"/>
<path d="M64.398 26.4414C62.9028 26.4414 61.6973 27.6454 61.6973 29.1387C61.6973 30.6321 62.9028 31.8361 64.398 31.8361C65.8933 31.8361 67.0988 30.6321 67.0988 29.1387C67.0988 27.6454 65.8933 26.4414 64.398 26.4414Z" fill="white"/>
<path d="M56.0529 45.8918H45.9507H51.184V44.2025H51.5018H55.3333L73.0893 25.2558C73.5285 25.1905 73.8649 25.2558 74.0705 25.4611C74.2761 25.6665 74.3696 25.9838 74.3135 26.4131L56.0529 45.8918Z" fill="white"/>
<path d="M29.6246 40.8799C28.1294 40.8799 26.9238 42.0839 26.9238 43.5772C26.9238 45.0706 28.1294 46.2746 29.6246 46.2746C31.1198 46.2746 32.3254 45.0706 32.3254 43.5772C32.3254 42.0839 31.1198 40.8799 29.6246 40.8799Z" fill="white"/>
<path d="M53.8194 65.0718C52.3242 65.0718 51.1187 66.2758 51.1187 67.7691C51.1187 69.2624 52.3242 70.4664 53.8194 70.4664C55.3147 70.4664 56.5202 69.2624 56.5202 67.7691C56.5202 66.2758 55.3147 65.0718 53.8194 65.0718Z" fill="white"/>
<path d="M76.8643 28.4575C75.3691 28.4575 74.1636 29.6615 74.1636 31.1549C74.1636 32.6482 75.3691 33.8522 76.8643 33.8522C78.3596 33.8522 79.5651 32.6482 79.5651 31.1549C79.5651 29.6615 78.3596 28.4575 76.8643 28.4575Z" fill="white"/>
<path d="M71.7247 33.5908C70.2295 33.5908 69.0239 34.7948 69.0239 36.2882C69.0239 37.7815 70.2295 38.9855 71.7247 38.9855C73.2199 38.9855 74.4255 37.7815 74.4255 36.2882C74.4255 34.7948 73.2199 33.5908 71.7247 33.5908Z" fill="white"/>
<path d="M48.0625 73.9668L48.1373 55.2441H49.9596V73.9668H48.0625Z" fill="white"/>
<path d="M62.6783 69.0293C62.454 69.0293 62.2297 68.9733 62.0335 68.8613C61.8372 68.768 61.7251 68.572 61.7251 68.3573V53.2373C61.7251 53.0227 61.8372 52.8266 62.0335 52.7426C62.2297 52.64 62.454 52.584 62.6783 52.584C62.9026 52.584 63.1269 52.6306 63.3325 52.7426C63.5194 52.836 63.6315 53.032 63.6222 53.2373V59.7146H69.7246V53.2373C69.7246 53.0227 69.8368 52.8266 70.033 52.7426C70.2293 52.64 70.4535 52.584 70.6778 52.584C70.9021 52.584 71.1264 52.6306 71.332 52.7426C71.5189 52.836 71.631 53.032 71.6217 53.2373V68.3573C71.6217 68.572 71.5189 68.768 71.332 68.8613C71.1357 68.9733 70.9115 69.0293 70.6778 69.0293C70.4535 69.0293 70.2293 68.9733 70.033 68.8613C69.8368 68.768 69.7246 68.572 69.7246 68.3573V61.292H63.6222V68.3573C63.6222 68.572 63.5194 68.768 63.3325 68.8613C63.1362 68.9733 62.9119 69.0293 62.6783 69.0293Z" fill="white"/>
<path d="M74.7528 69.0291C74.5752 69.0291 74.407 68.9918 74.2481 68.9265C74.0799 68.8705 73.921 68.7771 73.7996 68.6465C73.6968 68.5345 73.6313 68.3945 73.6313 68.2451C73.6313 68.1891 73.6313 68.1238 73.65 68.0678L78.2666 53.1065C78.3227 52.8825 78.4815 52.7051 78.6965 52.6118C78.9208 52.5091 79.1731 52.4531 79.416 52.4531C79.6777 52.4531 79.93 52.5091 80.1637 52.6211C80.3693 52.7145 80.5281 52.8918 80.5936 53.1065L85.1914 68.0678C85.2194 68.1145 85.2381 68.1705 85.2381 68.2265C85.2381 68.3851 85.1727 68.5251 85.0512 68.6278C84.9204 68.7491 84.7615 68.8518 84.5933 68.9171C84.4251 68.9918 84.2569 69.0291 84.0793 69.0291C83.9298 69.0291 83.7803 69.0011 83.6494 68.9265C83.528 68.8518 83.4345 68.7398 83.3971 68.5998L82.3878 65.2491H76.4536L75.4817 68.5998C75.4443 68.7398 75.3509 68.8611 75.22 68.9265C75.0799 69.0011 74.921 69.0291 74.7621 69.0291H74.7528ZM76.8928 63.6998H81.9393L79.416 55.2438L76.8928 63.6998Z" fill="white"/>
<path d="M91.8451 69.1692C91.0134 69.1692 90.2003 69.0105 89.434 68.6839C88.6957 68.3572 88.079 67.8159 87.6771 67.1159C87.2379 66.3972 87.0229 65.4452 87.0229 64.2599V57.4932C87.0229 56.3079 87.2472 55.3559 87.6865 54.6372C88.0976 53.9465 88.7144 53.3959 89.4527 53.0692C90.2097 52.7425 91.0321 52.5745 91.8638 52.5839C92.8824 52.5839 93.7609 52.7519 94.4805 53.0972C95.1533 53.4052 95.7327 53.8905 96.1439 54.5065C96.5364 55.0945 96.742 55.7945 96.7327 56.4945C96.7327 56.9145 96.6579 57.1945 96.499 57.3252C96.3402 57.4559 96.1065 57.5305 95.7888 57.5305C95.4897 57.5305 95.2561 57.4745 95.1066 57.3532C94.9571 57.2412 94.8543 57.0732 94.8449 56.8772C94.8262 56.6159 94.7795 56.3545 94.7234 56.1025C94.6487 55.7945 94.5085 55.5052 94.3216 55.2439C94.0879 54.9452 93.7889 54.7119 93.4431 54.5625C93.06 54.3852 92.5553 54.2919 91.9199 54.2919C90.9573 54.2919 90.219 54.5532 89.705 55.0665C89.191 55.5799 88.9294 56.3919 88.9294 57.4839V64.2505C88.9294 65.3425 89.191 66.1545 89.7144 66.6679C90.2377 67.1812 90.9947 67.4425 91.9853 67.4425C92.6114 67.4425 93.116 67.3492 93.4805 67.1719C93.8076 67.0225 94.0973 66.7892 94.3029 66.4999C94.4804 66.2385 94.6113 65.9399 94.686 65.6319C94.7608 65.3425 94.8075 65.0532 94.8449 64.7639C94.8449 64.5679 94.9477 64.3812 95.1159 64.2692C95.3215 64.1572 95.5552 64.1012 95.7888 64.1105C96.1065 64.1105 96.3402 64.1852 96.499 64.3252C96.6579 64.4652 96.7327 64.7452 96.7327 65.1652C96.7327 65.8839 96.5271 66.5839 96.1346 67.1812C95.714 67.8065 95.1346 68.3012 94.4431 68.6185C93.7141 68.9732 92.845 69.1505 91.8451 69.1505V69.1692Z" fill="white"/>
<path d="M100.106 69.0294C99.8817 69.0294 99.6575 68.9734 99.4612 68.8614C99.265 68.7681 99.1528 68.5721 99.1622 68.3574V53.2374C99.1622 53.0227 99.2743 52.8267 99.4612 52.7427C99.6575 52.6401 99.8817 52.5841 100.106 52.5841C100.33 52.5841 100.555 52.6307 100.76 52.7427C100.947 52.8361 101.059 53.0321 101.05 53.2374V60.6854L107.106 52.8547C107.236 52.6774 107.442 52.5747 107.666 52.5841C107.844 52.5841 108.012 52.6401 108.162 52.7334C108.321 52.8267 108.461 52.9481 108.563 53.0881C108.666 53.2187 108.722 53.3867 108.722 53.5454C108.722 53.6107 108.722 53.6854 108.704 53.7507C108.685 53.8254 108.648 53.9001 108.592 53.9561L103.994 59.6961L109.33 67.7974C109.405 67.8907 109.442 68.0121 109.442 68.1334C109.442 68.3014 109.386 68.4601 109.283 68.5907C109.171 68.7401 109.04 68.8521 108.881 68.9361C108.713 69.0294 108.526 69.0761 108.339 69.0667C108.218 69.0667 108.087 69.0294 107.975 68.9734C107.844 68.9081 107.741 68.8054 107.657 68.6841L102.723 61.2827L101.031 63.3734V68.3481C101.031 68.5627 100.928 68.7587 100.742 68.8521C100.545 68.9641 100.321 69.0201 100.087 69.0201L100.106 69.0294Z" fill="white"/>
<path d="M56.0059 98.9053C55.6415 98.9053 55.277 98.84 54.9406 98.7C54.6228 98.56 54.3612 98.336 54.193 98.0373C54.0061 97.7293 53.9126 97.328 53.9126 96.824V94.108C53.9126 93.604 54.0061 93.2027 54.193 92.8947C54.3612 92.596 54.6228 92.372 54.9406 92.232C55.277 92.092 55.6415 92.0173 56.0153 92.0267C56.3797 92.0267 56.7442 92.092 57.09 92.232C57.4077 92.3627 57.6694 92.596 57.8469 92.8947C58.0338 93.2027 58.1273 93.604 58.1273 94.108V96.824C58.1273 97.328 58.0338 97.7293 57.8469 98.0373C57.6694 98.336 57.4077 98.5693 57.0993 98.7C56.7535 98.84 56.3891 98.9147 56.0246 98.9053H56.0059ZM56.0059 98.028C56.3517 98.028 56.6321 97.9347 56.8283 97.7293C57.0246 97.524 57.1274 97.2347 57.1274 96.8147V94.0987C57.1274 93.688 57.0339 93.38 56.8283 93.184C56.6321 92.988 56.361 92.8853 56.0059 92.8853C55.6508 92.8853 55.3891 92.9787 55.1929 93.184C54.9966 93.3893 54.9032 93.6787 54.9032 94.0987V96.8147C54.9032 97.2253 54.9966 97.5333 55.1929 97.7293C55.3891 97.9253 55.6602 98.028 56.0059 98.028ZM56.0153 95.872C55.9031 95.872 55.8003 95.8347 55.7256 95.76C55.6508 95.6853 55.6134 95.5733 55.6134 95.4613C55.6134 95.3587 55.6508 95.256 55.7256 95.1813C55.8003 95.1067 55.9125 95.0693 56.0153 95.0693C56.1181 95.0693 56.2209 95.1067 56.2956 95.1813C56.3704 95.256 56.4078 95.3587 56.4078 95.4613C56.4078 95.5733 56.3704 95.676 56.2956 95.76C56.2209 95.8347 56.1181 95.8813 56.0153 95.872Z" fill="white"/>
<path d="M62.5382 98.9053C62.1737 98.9053 61.8092 98.84 61.4728 98.7C61.1551 98.56 60.8934 98.336 60.7252 98.0373C60.5383 97.7293 60.4448 97.328 60.4448 96.824V94.108C60.4448 93.604 60.5383 93.2027 60.7252 92.8947C60.8934 92.596 61.1551 92.372 61.4728 92.232C61.8092 92.092 62.1737 92.0173 62.5475 92.0267C62.912 92.0267 63.2764 92.092 63.6222 92.232C63.9399 92.3627 64.2016 92.596 64.3792 92.8947C64.5661 93.2027 64.6595 93.604 64.6595 94.108V96.824C64.6595 97.328 64.5661 97.7293 64.3792 98.0373C64.2016 98.336 63.9399 98.5693 63.6316 98.7C63.2858 98.84 62.9213 98.9147 62.5569 98.9053H62.5382ZM62.5382 98.028C62.8839 98.028 63.1643 97.9347 63.3605 97.7293C63.5568 97.524 63.6596 97.2347 63.6596 96.8147V94.0987C63.6596 93.688 63.5661 93.38 63.3605 93.184C63.1643 92.988 62.8933 92.8853 62.5382 92.8853C62.183 92.8853 61.9214 92.9787 61.7251 93.184C61.5289 93.3893 61.4354 93.6787 61.4354 94.0987V96.8147C61.4354 97.2253 61.5289 97.5333 61.7251 97.7293C61.9214 97.9253 62.1924 98.028 62.5382 98.028ZM62.5475 95.872C62.4354 95.872 62.3326 95.8347 62.2578 95.76C62.183 95.6853 62.1457 95.5733 62.1457 95.4613C62.1457 95.3587 62.183 95.256 62.2578 95.1813C62.3326 95.1067 62.4447 95.0693 62.5475 95.0693C62.6503 95.0693 62.7531 95.1067 62.8279 95.1813C62.9026 95.256 62.94 95.3587 62.94 95.4613C62.94 95.5733 62.9026 95.676 62.8279 95.76C62.7531 95.8347 62.6503 95.8813 62.5475 95.872Z" fill="white"/>
<path d="M69.0709 98.9053C68.7064 98.9053 68.3419 98.84 68.0055 98.7C67.6878 98.56 67.4261 98.336 67.2579 98.0373C67.071 97.7293 66.9775 97.328 66.9775 96.824V94.108C66.9775 93.604 67.071 93.2027 67.2579 92.8947C67.4261 92.596 67.6878 92.372 68.0055 92.232C68.3419 92.092 68.7064 92.0173 69.0802 92.0267C69.4447 92.0267 69.8091 92.092 70.1549 92.232C70.4727 92.3627 70.7343 92.596 70.9119 92.8947C71.0988 93.2027 71.1922 93.604 71.1922 94.108V96.824C71.1922 97.328 71.0988 97.7293 70.9119 98.0373C70.7437 98.336 70.482 98.56 70.1643 98.7C69.8185 98.84 69.454 98.9147 69.0802 98.9053H69.0709ZM69.0709 98.028C69.4166 98.028 69.6877 97.9253 69.8933 97.7293C70.0895 97.5333 70.1923 97.2347 70.1923 96.8147V94.0987C70.1923 93.688 70.0895 93.38 69.8933 93.184C69.697 92.988 69.426 92.8853 69.0709 92.8853C68.7157 92.8853 68.4541 92.9787 68.2578 93.184C68.0616 93.38 67.9681 93.6787 67.9681 94.0987V96.8147C67.9681 97.2253 68.0616 97.5333 68.2578 97.7293C68.4541 97.9253 68.7251 98.028 69.0709 98.028ZM69.0802 95.872C68.9681 95.872 68.8653 95.8347 68.7905 95.76C68.7157 95.6853 68.6784 95.5733 68.6784 95.4613C68.6784 95.3587 68.7157 95.256 68.7905 95.1813C68.8653 95.1067 68.9774 95.0693 69.0802 95.0693C69.183 95.0693 69.2858 95.1067 69.3606 95.1813C69.4353 95.256 69.4727 95.3587 69.4727 95.4613C69.4727 95.5733 69.4353 95.676 69.3606 95.76C69.2858 95.8347 69.183 95.8813 69.0802 95.872Z" fill="white"/>
<path d="M75.6031 98.9053C75.2386 98.9053 74.8742 98.84 74.5377 98.7C74.22 98.5693 73.9583 98.336 73.7901 98.0373C73.6032 97.7293 73.5098 97.328 73.5098 96.824V94.108C73.5098 93.604 73.6032 93.2027 73.7901 92.8947C73.9583 92.596 74.22 92.372 74.5377 92.232C74.8742 92.092 75.2386 92.0173 75.6124 92.0267C75.9769 92.0267 76.3414 92.092 76.6871 92.232C77.0049 92.3627 77.2666 92.596 77.4441 92.8947C77.631 93.2027 77.7245 93.604 77.7245 94.108V96.824C77.7245 97.328 77.631 97.7293 77.4441 98.0373C77.2759 98.336 77.0142 98.56 76.6965 98.7C76.3507 98.84 75.9863 98.9147 75.6218 98.9053H75.6031ZM75.6031 98.028C75.9489 98.028 76.2199 97.9253 76.4255 97.7293C76.6311 97.5333 76.7245 97.2347 76.7245 96.8147V94.0987C76.7245 93.688 76.6311 93.38 76.4255 93.184C76.2292 92.988 75.9582 92.8853 75.6031 92.8947C75.2573 92.8947 74.9863 92.988 74.7901 93.1933C74.5938 93.3893 74.5004 93.688 74.5004 94.108V96.824C74.5004 97.2347 74.5938 97.5333 74.7901 97.7387C74.9863 97.9347 75.2573 98.028 75.6031 98.028ZM75.6124 95.872C75.5003 95.872 75.3975 95.8347 75.3227 95.76C75.248 95.6853 75.2106 95.5733 75.2106 95.4613C75.2106 95.3587 75.248 95.256 75.3227 95.1813C75.3975 95.1067 75.5096 95.0693 75.6124 95.0693C75.7152 95.0693 75.818 95.1067 75.8928 95.1813C75.9676 95.256 76.0049 95.3587 76.0049 95.4613C76.0049 95.5733 75.9676 95.676 75.8928 95.76C75.818 95.8347 75.7152 95.8813 75.6124 95.872Z" fill="white"/>
<path d="M84.2751 98.8496C84.1536 98.8496 84.0415 98.8216 83.9293 98.7656C83.8359 98.7189 83.7705 98.6256 83.7705 98.5229V93.3336L83.4434 93.7442C83.4154 93.7722 83.378 93.8002 83.3313 93.8189C83.3032 93.8376 83.2658 93.8376 83.2378 93.8376C83.1443 93.8376 83.0509 93.7909 82.9948 93.7162C82.9294 93.6322 82.9014 93.5389 82.9014 93.4362C82.9014 93.3616 82.9201 93.2869 82.9574 93.2216C82.9948 93.1562 83.0415 93.1002 83.0976 93.0536L84.0695 92.1202C84.0976 92.0922 84.1349 92.0642 84.1817 92.0456C84.2284 92.0269 84.2751 92.0176 84.3218 92.0176C84.4246 92.0176 84.5274 92.0456 84.6209 92.1016C84.7143 92.1482 84.7611 92.2416 84.7611 92.3442V98.5229C84.7611 98.6256 84.705 98.7189 84.6022 98.7656C84.4994 98.8216 84.3779 98.8589 84.2658 98.8589L84.2751 98.8496Z" fill="white"/>
<path d="M94.7232 98.9146C94.3587 98.9146 93.9943 98.8493 93.6579 98.7093C93.3401 98.5693 93.0785 98.3453 92.9102 98.0466C92.7233 97.7386 92.6299 97.3373 92.6299 96.8333V94.1173C92.6299 93.6133 92.7233 93.2119 92.9102 92.9039C93.0785 92.6053 93.3401 92.3813 93.6579 92.2413C93.9943 92.1013 94.3588 92.0266 94.7326 92.0359C95.097 92.0359 95.4615 92.1013 95.8073 92.2413C96.125 92.3719 96.3867 92.6053 96.5642 92.9039C96.7511 93.2119 96.8446 93.6133 96.8446 94.1173V96.8333C96.8446 97.3373 96.7511 97.7386 96.5642 98.0466C96.396 98.3453 96.1344 98.5693 95.8166 98.7093C95.4708 98.8493 95.1064 98.9239 94.7326 98.9146H94.7232ZM94.7232 98.0373C95.069 98.0373 95.34 97.9346 95.5456 97.7386C95.7418 97.5426 95.8446 97.2439 95.8446 96.8239V94.1079C95.8446 93.6973 95.7418 93.3893 95.5456 93.1933C95.3493 92.9973 95.0783 92.8946 94.7232 92.8946C94.3681 92.8946 94.1064 92.9879 93.9102 93.1933C93.7139 93.3893 93.6205 93.6879 93.6205 94.1079V96.8239C93.6205 97.2346 93.7139 97.5426 93.9102 97.7386C94.1064 97.9346 94.3774 98.0373 94.7232 98.0373ZM94.7326 95.8813C94.6204 95.8813 94.5176 95.8439 94.4429 95.7693C94.3681 95.6946 94.3307 95.5826 94.3307 95.4706C94.3307 95.3679 94.3681 95.2653 94.4429 95.1906C94.5176 95.1159 94.6298 95.0786 94.7326 95.0786C94.8354 95.0786 94.9382 95.1159 95.0129 95.1906C95.0877 95.2653 95.1251 95.3679 95.1251 95.4706C95.1251 95.5826 95.0877 95.6853 95.0129 95.7693C94.9382 95.8439 94.8354 95.8906 94.7326 95.8813Z" fill="white"/>
<path d="M120.002 53.8721H118.909L118.703 55.3747C118.208 55.4214 117.722 55.5241 117.255 55.6827L116.526 54.3854L115.545 54.7961L115.909 56.2427C115.498 56.5041 115.077 56.7561 114.666 57.0734L113.47 56.0934L112.694 56.8681L113.573 58.0627C113.255 58.4454 112.975 58.8654 112.741 59.3041L111.293 58.9401L110.881 59.9201L112.18 60.6481C112.022 61.1147 111.919 61.6001 111.872 62.0947L110.47 62.3001V63.3827L111.975 63.5881C112.022 64.0827 112.124 64.5681 112.283 65.0347L110.937 65.7627L111.349 66.7427L112.797 66.3787C113.059 66.7894 113.321 67.2094 113.629 67.6201L112.75 68.8147L113.479 69.5894L114.676 68.7121C115.059 69.0294 115.479 69.3094 115.918 69.5427L115.554 70.9894L116.535 71.4001L117.264 70.1027C117.731 70.2614 118.217 70.3641 118.713 70.4107L118.918 71.9134H120.012L120.217 70.4107C120.713 70.3641 121.199 70.2614 121.666 70.1027L122.395 71.4001L123.376 70.9894L123.012 69.5427C123.423 69.2814 123.843 69.0294 124.254 68.7121L125.451 69.5894L126.226 68.8147L125.348 67.6201C125.666 67.2374 125.946 66.8174 126.18 66.3787L127.628 66.7427L128.039 65.7627L126.75 65.0347C126.908 64.5681 127.011 64.0827 127.058 63.5881L128.563 63.3827V62.3001L127.058 62.0947C127.011 61.6001 126.908 61.1147 126.75 60.6481L128.049 59.9201L127.637 58.9401L126.18 59.3041C125.918 58.8934 125.666 58.4734 125.348 58.0627L126.226 56.8681L125.451 56.0934L124.254 56.9707C123.871 56.6534 123.451 56.3734 123.012 56.1401L123.376 54.6934L122.395 54.2827L121.666 55.5801C121.199 55.4214 120.713 55.3187 120.217 55.2721L120.012 53.8721H120.002ZM123.395 62.9067C123.395 65.0534 121.656 66.7894 119.507 66.7894C117.358 66.7894 115.619 65.0534 115.619 62.9067C115.619 60.7601 117.358 59.0241 119.507 59.0241C121.647 59.0241 123.385 60.7414 123.395 62.8787V62.8974V62.9067Z" fill="white"/>
<path d="M122.292 62.5802H121.899C121.843 62.1695 121.684 61.7775 121.432 61.4415L121.712 61.1615C121.843 61.0402 121.843 60.8255 121.712 60.7042C121.591 60.5735 121.376 60.5735 121.254 60.7042L120.974 60.9842C120.647 60.7322 120.254 60.5735 119.843 60.5175V60.1255C119.843 59.9482 119.694 59.7988 119.516 59.7988C119.339 59.7988 119.189 59.9482 119.189 60.1255V60.5175C118.778 60.5735 118.385 60.7322 118.058 60.9842L117.778 60.7042C117.647 60.5828 117.442 60.5828 117.32 60.7042C117.199 60.8348 117.199 61.0308 117.32 61.1615L117.6 61.4415C117.348 61.7682 117.189 62.1602 117.133 62.5802H116.741C116.563 62.5802 116.414 62.7295 116.414 62.9068C116.414 63.0842 116.563 63.2335 116.741 63.2335H117.133C117.189 63.6442 117.348 64.0362 117.6 64.3628L117.32 64.6428C117.189 64.7735 117.189 64.9695 117.32 65.1002C117.376 65.1655 117.46 65.1935 117.554 65.1935C117.638 65.1935 117.722 65.1562 117.787 65.1002L118.068 64.8202C118.395 65.0722 118.787 65.2308 119.198 65.2868V65.6788C119.198 65.8562 119.348 66.0055 119.526 66.0055C119.703 66.0055 119.853 65.8562 119.853 65.6788V65.2868C120.264 65.2308 120.656 65.0722 120.983 64.8202L121.264 65.1002C121.329 65.1655 121.413 65.1935 121.497 65.1935C121.581 65.1935 121.666 65.1562 121.731 65.1002C121.862 64.9788 121.862 64.7735 121.731 64.6428L121.451 64.3628C121.703 64.0362 121.862 63.6442 121.918 63.2335H122.31C122.488 63.2335 122.638 63.0935 122.638 62.9162C122.638 62.7388 122.488 62.5895 122.31 62.5895L122.292 62.5802ZM119.507 64.6708C118.535 64.6708 117.75 63.8868 117.75 62.9068C117.75 61.9362 118.535 61.1522 119.516 61.1522C120.488 61.1522 121.273 61.9362 121.273 62.9068C121.273 63.8775 120.488 64.6615 119.516 64.6615L119.507 64.6708Z" fill="white"/>
<path d="M130.674 66.4531H129.581L129.375 67.8998C128.852 67.9465 128.385 68.1051 127.917 68.2638L127.03 67.0691L126.095 67.6385L126.665 69.0385C126.282 69.3465 125.927 69.6918 125.628 70.0745L124.273 69.5051L123.703 70.4385L124.899 71.3158C124.703 71.7731 124.581 72.2678 124.535 72.7625L123.077 72.9678V74.0598L124.535 74.2651C124.591 74.7785 124.74 75.2451 124.899 75.7118L123.703 76.5891L124.273 77.5225L125.628 76.9531C125.936 77.3638 126.301 77.6811 126.665 77.9891L126.095 79.3331L127.03 79.9025L127.917 78.7078C128.375 78.9038 128.871 79.0251 129.375 79.0718L129.581 80.5185H130.674L130.88 79.0718C131.403 79.0251 131.871 78.8665 132.338 78.7078L133.226 79.9025L134.16 79.3331L133.59 77.9891C133.973 77.6811 134.328 77.3358 134.627 76.9531L135.982 77.5225L136.552 76.5891L135.356 75.7118C135.553 75.2545 135.674 74.7598 135.721 74.2651L137.179 74.0598V72.9678L135.721 72.7625C135.665 72.2491 135.515 71.7825 135.356 71.3158L136.552 70.4385L135.982 69.5051L134.627 70.0745C134.319 69.6638 133.955 69.3465 133.59 69.0385L134.16 67.6945L133.226 67.1251L132.338 68.3198C131.88 68.1238 131.385 68.0025 130.88 67.9558L130.674 66.4625V66.4531ZM132.73 73.4905C132.73 74.9278 131.581 76.0945 130.142 76.1038C128.702 76.1131 127.534 74.9558 127.525 73.5185C127.516 72.0811 128.674 70.9145 130.114 70.9051C130.114 70.9051 130.114 70.9051 130.123 70.9051C131.562 70.9331 132.721 72.0905 132.721 73.4905H132.73Z" fill="white"/>
<path d="M132.002 73.2666H131.74C131.702 72.9866 131.59 72.7253 131.422 72.5013L131.609 72.3146C131.702 72.2306 131.702 72.0906 131.618 72.0066C131.534 71.9226 131.394 71.9133 131.31 71.9973C131.31 71.9973 131.31 71.9973 131.301 72.0066L131.114 72.1933C130.889 72.0253 130.628 71.9133 130.347 71.876V71.6146C130.347 71.4933 130.254 71.3906 130.132 71.3906C130.011 71.3906 129.918 71.484 129.908 71.6053C129.908 71.6053 129.908 71.6053 129.908 71.6146V71.876C129.628 71.9133 129.366 72.0253 129.142 72.1933L128.955 72.0066C128.862 71.9226 128.731 71.932 128.647 72.016C128.572 72.1 128.572 72.2306 128.647 72.3146L128.833 72.5013C128.665 72.7253 128.553 72.9866 128.516 73.2666H128.254C128.133 73.2666 128.03 73.36 128.03 73.4813C128.03 73.6026 128.123 73.7053 128.245 73.7053H128.506C128.544 73.9853 128.656 74.2466 128.824 74.4706L128.637 74.6573C128.553 74.7413 128.553 74.8813 128.637 74.9653C128.721 75.0493 128.862 75.0493 128.946 74.9653L129.133 74.7786C129.357 74.9466 129.618 75.0586 129.899 75.0959V75.3573C129.899 75.4786 129.992 75.5813 130.114 75.5813C130.235 75.5813 130.329 75.488 130.338 75.3666V75.1053C130.618 75.068 130.88 74.956 131.104 74.788L131.291 74.9746C131.375 75.0586 131.516 75.0586 131.6 74.9746C131.684 74.8906 131.684 74.7506 131.6 74.6666L131.413 74.48C131.581 74.256 131.693 73.9946 131.731 73.7146H131.992C132.114 73.7146 132.216 73.612 132.216 73.4906C132.216 73.3693 132.123 73.276 132.002 73.2666ZM130.132 74.676C129.478 74.676 128.946 74.144 128.946 73.4906C128.946 72.8373 129.478 72.3053 130.132 72.3053C130.787 72.3053 131.319 72.8373 131.319 73.4906C131.319 74.144 130.787 74.676 130.132 74.676Z" fill="white"/>
<path d="M122.684 76.3838H121.6L121.395 77.8865C120.918 77.9891 120.46 78.1851 120.049 78.4558L118.862 77.5225L118.086 78.2971L119.012 79.4918C118.75 79.9025 118.563 80.3598 118.451 80.8358L116.956 81.0411V82.0771L118.451 82.2825C118.554 82.7585 118.741 83.2158 119.012 83.6265L118.086 84.8211L118.862 85.5958L120.049 84.6625C120.46 84.9238 120.918 85.1198 121.395 85.2318L121.6 86.7345H122.684L122.89 85.2318C123.366 85.1291 123.824 84.9331 124.236 84.6625L125.422 85.5958L126.198 84.8211L125.273 83.6265C125.534 83.2158 125.721 82.7585 125.834 82.2825L127.329 82.0771V80.9945L125.834 80.7891C125.731 80.3131 125.544 79.8558 125.273 79.4451L126.198 78.2505L125.422 77.4758L124.236 78.4091C123.824 78.1478 123.366 77.9518 122.89 77.8398L122.684 76.3838ZM123.703 81.5638C123.703 82.4225 123.002 83.1131 122.152 83.1038C121.301 83.0945 120.6 82.4038 120.61 81.5545C120.61 80.7051 121.301 80.0145 122.161 80.0145C123.011 80.0145 123.712 80.7051 123.712 81.5545C123.712 81.5545 123.712 81.5545 123.712 81.5638H123.703Z" fill="white"/>
<path d="M123.189 81.433H123.039C123.011 81.2836 122.955 81.1343 122.862 81.013L122.965 80.9103C123.011 80.8636 123.011 80.789 122.965 80.7423C122.918 80.6956 122.843 80.6956 122.796 80.7423L122.694 80.845C122.572 80.7516 122.423 80.6863 122.264 80.6676V80.5183C122.264 80.453 122.198 80.397 122.133 80.4063C122.077 80.4063 122.021 80.4623 122.021 80.5183V80.6676C121.862 80.6956 121.722 80.7516 121.591 80.845L121.488 80.7423C121.441 80.6956 121.367 80.6956 121.32 80.7423C121.273 80.789 121.273 80.8636 121.32 80.9103L121.423 81.013C121.329 81.1343 121.264 81.2836 121.245 81.433H121.096C121.03 81.433 120.974 81.4983 120.983 81.5636C120.983 81.6196 121.04 81.6756 121.096 81.6756H121.245C121.264 81.8343 121.329 81.9743 121.423 82.0956L121.32 82.1983C121.273 82.245 121.273 82.3196 121.32 82.3663C121.357 82.413 121.432 82.4223 121.479 82.3756C121.479 82.3756 121.479 82.3756 121.488 82.3663L121.591 82.2636C121.712 82.357 121.862 82.4223 122.021 82.441V82.581C122.021 82.6463 122.067 82.7116 122.133 82.7116C122.198 82.7116 122.264 82.665 122.264 82.5996V82.581V82.4316C122.423 82.413 122.563 82.3476 122.694 82.2543L122.796 82.357C122.815 82.385 122.852 82.3943 122.881 82.3943C122.909 82.3943 122.946 82.3756 122.965 82.357C123.011 82.3103 123.011 82.2356 122.965 82.189L122.862 82.0863C122.955 81.965 123.021 81.8156 123.039 81.6663H123.189C123.254 81.6663 123.32 81.6196 123.32 81.5543C123.32 81.489 123.273 81.4236 123.208 81.4236H123.189V81.433ZM122.152 82.217C121.787 82.217 121.497 81.9276 121.497 81.5636C121.497 81.1996 121.787 80.9103 122.152 80.9103C122.516 80.9103 122.806 81.1996 122.806 81.5636C122.806 81.9276 122.516 82.217 122.152 82.217Z" fill="white"/>
<path d="M89.135 98.8305C89.0135 98.8305 88.9013 98.8025 88.7892 98.7465C88.6958 98.6999 88.6303 98.6065 88.6303 98.5039V93.3145L88.3033 93.7252C88.2752 93.7532 88.2378 93.7812 88.1911 93.7999C88.1631 93.8185 88.1257 93.8185 88.0977 93.8185C88.0042 93.8185 87.9108 93.7719 87.8547 93.6972C87.7893 93.6132 87.7612 93.5199 87.7612 93.4172C87.7612 93.3425 87.7799 93.2679 87.8173 93.2025C87.8547 93.1372 87.9014 93.0812 87.9575 93.0345L88.9294 92.1012C88.9574 92.0732 88.9948 92.0452 89.0415 92.0265C89.0883 92.0079 89.135 91.9985 89.1817 91.9985C89.2845 91.9985 89.3873 92.0265 89.4808 92.0825C89.5742 92.1292 89.6209 92.2225 89.6209 92.3252V98.5039C89.6209 98.6065 89.5649 98.6999 89.4621 98.7465C89.3593 98.8025 89.2378 98.8399 89.1256 98.8399L89.135 98.8305Z" fill="white"/>
<path d="M101.312 98.9239C100.947 98.9239 100.583 98.8585 100.246 98.7185C99.9285 98.5785 99.6668 98.3545 99.4986 98.0559C99.3117 97.7479 99.2183 97.3465 99.2183 96.8425V94.1265C99.2183 93.6225 99.3117 93.2212 99.4986 92.9132C99.6668 92.6145 99.9285 92.3905 100.246 92.2505C100.583 92.1105 100.947 92.0359 101.321 92.0452C101.685 92.0452 102.05 92.1105 102.396 92.2505C102.713 92.3812 102.975 92.6145 103.153 92.9132C103.34 93.2212 103.433 93.6225 103.433 94.1265V96.8425C103.433 97.3465 103.34 97.7479 103.153 98.0559C102.984 98.3545 102.723 98.5785 102.405 98.7185C102.059 98.8585 101.695 98.9332 101.321 98.9239H101.312ZM101.312 98.0465C101.657 98.0465 101.928 97.9439 102.134 97.7479C102.33 97.5519 102.433 97.2532 102.433 96.8332V94.1172C102.433 93.7065 102.33 93.3985 102.134 93.2025C101.938 93.0065 101.667 92.9039 101.312 92.9039C100.956 92.9039 100.695 92.9972 100.499 93.2025C100.302 93.3985 100.209 93.6972 100.209 94.1172V96.8332C100.209 97.2439 100.302 97.5519 100.499 97.7479C100.695 97.9439 100.966 98.0465 101.312 98.0465ZM101.321 95.8905C101.209 95.8905 101.106 95.8532 101.031 95.7785C100.956 95.7039 100.919 95.5919 100.919 95.4799C100.919 95.3772 100.956 95.2745 101.031 95.1999C101.106 95.1252 101.218 95.0879 101.321 95.0879C101.424 95.0879 101.527 95.1252 101.601 95.1999C101.676 95.2745 101.713 95.3772 101.713 95.4799C101.713 95.5919 101.676 95.6945 101.601 95.7785C101.527 95.8532 101.424 95.8999 101.321 95.8905Z" fill="white"/>
<path d="M48.6515 42.3921C47.1562 42.3921 45.9507 43.5961 45.9507 45.0894C45.9507 46.5828 47.1562 47.7868 48.6515 47.7868C50.1467 47.7868 51.3522 46.5828 51.3522 45.0894C51.3522 43.5961 50.1467 42.3921 48.6515 42.3921Z" fill="white"/>
<path d="M56.3985 33.5908C54.9033 33.5908 53.6978 34.7948 53.6978 36.2882C53.6978 37.7815 54.9033 38.9855 56.3985 38.9855C57.8938 38.9855 59.0993 37.7815 59.0993 36.2882C59.0993 34.7948 57.8938 33.5908 56.3985 33.5908Z" fill="white"/>
</svg>
